# AST/ASF file generated using VICON BodyLanguage
# -----------------------------------------------
:version 1.10
:name VICON
:units
  mass 1.0
  length 0.45
  angle deg
:documentation
   .ast/.asf automatically generated from VICON data using
   VICON BodyBuilder and BodyLanguage model FoxedUp or BRILLIANT.MOD
:root
   order TX TY TZ RX RY RZ
   axis XYZ
   position 0 0 0  
   orientation 0 0 0 
:bonedata
  begin
     id 1 
     name lhipjoint
     direction 0.541323 -0.757556 0.364798 
     length 2.47576 
     axis 0 0 0  XYZ
  end
  begin
     id 2 
     name lfemur
     direction 0.34202 -0.939693 0  
     length 7.46493  
     axis 0 0 20  XYZ
    dof rx ry rz
    limits (-160.0 20.0)
           (-70.0 70.0)
           (-60.0 70.0)
  end
  begin
     id 3 
     name ltibia
     direction 0.34202 -0.939693 0   
     length 7.73805   
     axis 0 0 20   XYZ
    dof rx
    limits (-10.0 170.0)
  end
  begin
     id 4 
     name lfoot
     direction 0.107174 -0.294458 0.949636   
     length 2.25864   
     axis -90 7.62852e-016 20   XYZ
    dof rx rz
    limits (-45.0 90.0)
           (-70.0 20.0)
  end
  begin
     id 5 
     name ltoes
     direction 1.53606e-011 -4.21934e-011 1   
     length 1.12451   
     axis -90 7.62852e-016 20   XYZ
    dof rx
    limits (-90.0 20.0)
  end
  begin
     id 6 
     name rhipjoint
     direction -0.524745 -0.766967 0.36933   
     length 2.44538  
     axis 0 0 0  XYZ 
  end
  begin
     id 7 
     name rfemur
     direction -0.34202 -0.939693 0   
     length 7.61604   
     axis 0 0 -20   XYZ
    dof rx ry rz
    limits (-160.0 20.0)
           (-70.0 70.0)
           (-70.0 60.0)
  end
  begin
     id 8 
     name rtibia
     direction -0.34202 -0.939693 0   
     length 7.61056   
     axis 0 0 -20   XYZ
    dof rx
    limits (-10.0 170.0)
 end
 begin
     id 9 
     name rfoot
     direction -0.12616 -0.346623 0.929482   
     length 2.46372  
     axis -90 -7.62852e-016 -20   XYZ
    dof rx rz
    limits (-45.0 90.0)
           (-20.0 70.0)
  end
  begin
     id 10 
     name rtoes
     direction -1.53531e-011 -4.22004e-011 1   
     length 1.21611   
     axis -90 -7.62852e-016 -20   XYZ
    dof rx
    limits (-90.0 20.0)
  end
  begin
     id 11 
     name lowerback
     direction -0.000778023 0.997293 -0.0735223   
     length 2.06139   
     axis 0 0 0   XYZ
    dof rx ry rz
    limits (-20.0 45.0)
           (-30.0 30.0)
           (-30.0 30.0)
  end
  begin
     id 12 
     name upperback
     direction 0.0222598 0.999722 -0.0078355   
     length 2.06383   
     axis 0 0 0   XYZ
    dof rx ry rz
    limits (-20.0 45.0)
           (-30.0 30.0)
           (-30.0 30.0)
  end
  begin
     id 13 
     name thorax
     direction 0.0219654 0.999405 0.0265994   
     length 2.07163   
     axis 0 0 0   XYZ
    dof rx ry rz
    limits (-20.0 45.0)
           (-30.0 30.0)
           (-30.0 30.0)
  end
  begin
     id 14 
     name lowerneck
     direction 0.0213282 0.988147 0.15202   
     length 1.75969   
     axis 0 0 0   XYZ
    dof rx ry rz
    limits (-20.0 45.0)
           (-30.0 30.0)
           (-30.0 30.0)
  end
  begin
     id 15 
     name upperneck
     direction -0.0546456 0.982624 -0.177379   
     length 1.79244   
     axis 0 0 0   XYZ
    dof rx ry rz
    limits (-20.0 45.0)
           (-30.0 30.0)
           (-30.0 30.0)
  end
  begin
     id 16
     name head
     direction -0.0199987 0.996855 -0.076686  
     length 1.80555  
     axis 0 0 0   XYZ
    dof rx ry rz
    limits (-20.0 45.0)
           (-30.0 30.0)
           (-30.0 30.0)
  end
  begin
     id 17 
     name lclavicle
     direction 0.929565 0.363219 -0.063096  
     length 3.55722  
     axis 0 0 0   XYZ
    dof ry rz
    limits (-20.0 10.0)
           (0.0 20.0)
  end
  begin
     id 18 
     name lhumerus
     direction 1 -4.48993e-011 -2.36203e-027   
     length 4.92785   
     axis 180 -30 -90   XYZ
    dof rx ry rz
    limits (-60.0 90.0)
           (-90.0 90.0)
           (-90.0 90.0)
  end
  begin
     id 19
     name lradius
     direction 1 -4.48947e-011 2.02997e-027   
     length 3.44052   
     axis 180 -30 -90   XYZ
    dof rx
    limits (-10.0 170.0)
  end
  begin
     id 20
     name lwrist
     direction 1 -4.48962e-011 1.45991e-027   
     length 1.72026   
     axis 1.49639e-024 90 90   XYZ
    dof ry
    limits (-180.0 0.0)
 end
  begin
     id 21 
     name lhand
     direction 1 -4.48984e-011 2.91906e-027   
     length 0.654326   
     axis -1.863e-015 90 90   XYZ
    dof rx rz
    limits (-90.0 90.0)
           (-45.0 45.0)
  end
  begin
     id 22 
     name lfingers
     direction 1 -4.48961e-011 5.83968e-027   
     length 0.527534   
     axis -3.72598e-015 90 90   XYZ
    dof rx
    limits (0.0 90.0)
  end
  begin
     id 23
     name lthumb
     direction 0.707107 -6.34963e-011 0.707107   
     length 0.757437   
     axis -90 45 -6.68868e-015   XYZ
    dof rx rz
    limits (-45.0 45.0)
           (-45.0 45.0)
  end
  begin
     id 24 
     name rclavicle
     direction -0.902944 0.422599 -0.0781198   
     length 3.54432  
     axis 0 0 0   XYZ 
    dof ry rz
    limits (-10.0 20.0)
           (-20.0 0.0)
  end
  begin
     id 25 
     name rhumerus
     direction -1 -4.48953e-011 -4.75835e-028  
     length 5.09181   
     axis 180 30 90   XYZ
    dof rx ry rz
    limits (-90.0 60.0)
           (-90.0 90.0)
           (-90.0 90.0)
  end
  begin
     id 26 
     name rradius
     direction -1 -4.48986e-011 -3.25889e-027   
     length 3.49865   
     axis 180 30 90   XYZ
    dof rx
    limits (-10.0 170.0)
  end
  begin
     id 27 
     name rwrist
     direction -1 -4.48963e-011 1.45989e-027   
     length 1.74933   
     axis 1.49639e-024 -90 -90   XYZ
    dof ry
    limits (-180.0 0.0)
  end
  begin
     id 28
     name rhand
     direction -1 -4.49003e-011 2.91844e-027   
     length 0.66641   
     axis -1.863e-015 -90 -90   XYZ
    dof rx rz
    limits (-90.0 90.0)
           (-45.0 45.0)
  end
  begin
     id 29
     name rfingers
     direction -1 -4.48973e-011 5.83886e-027   
     length 0.537277   
     axis -3.72598e-015 -90 -90   XYZ
    dof rx
    limits (0.0 90.0)
  end
  begin
     id 30
     name rthumb
     direction -0.707107 -6.34976e-011 0.707107   
     length 0.771425   
     axis -90 -45 6.68868e-015   XYZ
    dof rx rz
    limits (-45.0 45.0)
           (-45.0 45.0)
  end
:hierarchy
  begin
    root lhipjoint rhipjoint lowerback
    lhipjoint lfemur
    lfemur ltibia
    ltibia lfoot
    lfoot ltoes
    rhipjoint rfemur
    rfemur rtibia
    rtibia rfoot
    rfoot rtoes
    lowerback upperback
    upperback thorax
    thorax lowerneck lclavicle rclavicle
    lowerneck upperneck
    upperneck head
    lclavicle lhumerus
    lhumerus lradius
    lradius lwrist
    lwrist lhand lthumb
    lhand lfingers
    rclavicle rhumerus
    rhumerus rradius
    rradius rwrist
    rwrist rhand rthumb
    rhand rfingers
  end

#!OML:ASF H:\LiuWeirdWalks\Patient Classification 1\Patient 1\Session 1\male.ASF
:FULLY-SPECIFIED
:DEGREES
16
root 0.53919 17.8806 -30.6243 3.20903 5.35766 -0.750038
lowerback 2.40339 0.0017439 -2.28799
upperback -3.43753 -0.0421484 1.44336
thorax -4.90077 0.0935632 2.78191
lowerneck -20.7664 1.50256 6.22137
upperneck 22.2794 1.69814 -6.16029
head 10.7114 0.545786 -3.00906
rclavicle 3.48494e-015 -1.19271e-014
rhumerus -32.7812 -7.88095 -80.205
rradius 22.6713
rwrist 0.391863
rhand -17.0054 -2.92788
rfingers 7.12502
rthumb 9.23009 -32.7059
lclavicle 3.48494e-015 -1.19271e-014
lhumerus -32.9765 5.79089 85.6203
lradius 22.371
lwrist 3.39444
lhand -12.3095 2.03878
lfingers 7.12502
lthumb 13.7588 31.5639
rfemur -10.9655 -1.25466 19.8155
rtibia 32.2945
rfoot -16.3004 -21.869
rtoes -3.06975
lfemur -8.87023 -1.87183 -18.1366
ltibia 27.1722
lfoot -13.569 13.5965
ltoes -9.41049
17
root 0.541752 17.8807 -30.6232 3.22684 5.32502 -0.762137
lowerback 2.39466 0.219283 -2.13439
upperback -3.44376 0.245955 1.20273
thorax -4.91812 0.226475 2.42628
lowerneck -20.7217 1.16762 6.28319
upperneck 22.295 1.14947 -5.93798
head 10.6672 0.328723 -3.02071
rclavicle -6.06293e-015 -1.77912e-014
rhumerus -32.9749 -8.59131 -80.254
rradius 22.7748
rwrist 0.441061
rhand -16.9118 -2.90154
rfingers 7.12502
rthumb 9.32046 -32.6755
lclavicle -6.06293e-015 -1.77912e-014
lhumerus -32.8324 5.07443 85.5924
lradius 22.2789
lwrist 3.52682
lhand -12.3512 2.06494
lfingers 7.12502
lthumb 13.7186 31.5927
rfemur -10.9877 -1.23029 19.8186
rtibia 32.2969
rfoot -16.2992 -21.8643
rtoes -3.08244
lfemur -8.88506 -1.84002 -18.1336
ltibia 27.1788
lfoot -13.5822 13.6017
ltoes -9.39244
18
root 0.544287 17.8808 -30.6225 3.24334 5.30567 -0.774405
lowerback 2.41391 0.575436 -1.89464
upperback -3.50418 0.7149 0.779515
thorax -5.00943 0.443442 1.82068
lowerneck -20.4845 0.536944 6.28659
upperneck 22.3063 0.132108 -5.39756
head 10.5531 -0.0666351 -2.97284
rclavicle 9.93263e-015 -3.21161e-015
rhumerus -33.4035 -9.89803 -80.282
rradius 22.9255
rwrist 0.55294
rhand -16.8442 -2.88265
rfingers 7.12502
rthumb 9.38565 -32.6537
lclavicle 9.93263e-015 -3.21161e-015
lhumerus -32.7233 3.6666 85.5726
lradius 22.1947
lwrist 3.78439
lhand -12.3707 2.08726
lfingers 7.12502
lthumb 13.6998 31.6163
rfemur -11.0071 -1.21242 19.8227
rtibia 32.2979
rfoot -16.2978 -21.8637
rtoes -3.08674
lfemur -8.90273 -1.81845 -18.1298
ltibia 27.1876
lfoot -13.5937 13.6039
ltoes -9.35394
19
root 0.54674 17.8808 -30.6214 3.25426 5.29084 -0.791995
lowerback 2.45804 0.991121 -1.60666
upperback -3.56259 1.26172 0.280203
thorax -5.10186 0.694781 1.10323
lowerneck -20.3037 -0.161074 6.36729
upperneck 22.3676 -1.01933 -4.80381
head 10.4664 -0.511387 -2.93695
rclavicle 2.59352e-014 -3.97569e-016
rhumerus -33.8685 -11.4738 -80.2902
rradius 23.0866
rwrist 0.698924
rhand -16.7938 -2.86504
rfingers 7.12502
rthumb 9.43429 -32.6339
lclavicle 2.59352e-014 -3.97569e-016
lhumerus -32.5774 1.94396 85.5766
lradius 22.1234
lwrist 4.11366
lhand -12.3665 2.07737
lfingers 7.12502
lthumb 13.7038 31.6062
rfemur -11.0188 -1.19192 19.8337
rtibia 32.2986
rfoot -16.305 -21.8683
rtoes -3.07444
lfemur -8.91451 -1.80248 -18.1197
ltibia 27.1958
lfoot -13.606 13.6068
ltoes -9.33235
20
root 0.549191 17.8808 -30.6205 3.26272 5.2855 -0.800228
lowerback 2.48859 1.24541 -1.41253
upperback -3.60947 1.59667 -0.0309084
thorax -5.16416 0.847597 0.647897
lowerneck -20.1194 -0.64398 6.29404
upperneck 22.4051 -1.7858 -4.32925
head 10.4022 -0.80883 -2.86057
rclavicle -3.05134e-014 -7.55382e-015
rhumerus -34.1712 -12.4253 -80.2929
rradius 23.1929
rwrist 0.788371
rhand -16.7575 -2.84086
rfingers 7.12502
rthumb 9.46928 -32.6081
lclavicle -3.05134e-014 -7.55382e-015
lhumerus -32.5232 0.883746 85.5902
lradius 22.0934
lwrist 4.33337
lhand -12.3434 2.03361
lfingers 7.12502
lthumb 13.7261 31.5609
rfemur -11.0264 -1.18412 19.8339
rtibia 32.3014
rfoot -16.3172 -21.8699
rtoes -3.05531
lfemur -8.9216 -1.78917 -18.1195
ltibia 27.1992
lfoot -13.6165 13.6029
ltoes -9.32312
21
root 0.551493 17.8807 -30.6191 3.27121 5.28849 -0.7934
lowerback 2.47486 1.26135 -1.37704
upperback -3.61895 1.61889 -0.0542898
thorax -5.16498 0.856819 0.602479
lowerneck -20.081 -0.67563 6.27377
upperneck 22.4436 -1.82781 -4.30242
head 10.4068 -0.825646 -2.85384
rclavicle -2.30217e-014 1.98785e-015
rhumerus -34.2001 -12.4456 -80.3065
rradius 23.2179
rwrist 0.792986
rhand -16.7245 -2.81883
rfingers 7.12502
rthumb 9.50115 -32.5846
lclavicle -2.30217e-014 1.98785e-015
lhumerus -32.5531 0.846571 85.6144
lradius 22.0937
lwrist 4.37551
lhand -12.3143 1.96576
lfingers 7.12502
lthumb 13.7541 31.4912
rfemur -11.0309 -1.18613 19.818
rtibia 32.3059
rfoot -16.3303 -21.8712
rtoes -3.0314
lfemur -8.9248 -1.77436 -18.1346
ltibia 27.1985
lfoot -13.6266 13.5898
ltoes -9.33515
22
root 0.553492 17.8807 -30.6174 3.28328 5.29015 -0.780624
lowerback 2.45088 1.24711 -1.37359
upperback -3.60077 1.60114 -0.0394883
thorax -5.13217 0.847956 0.617946
lowerneck -20.1519 -0.636149 6.29324
upperneck 22.4993 -1.76695 -4.36326
head 10.4432 -0.802927 -2.87305
rclavicle -2.74944e-014 7.95139e-015
rhumerus -34.1359 -12.3932 -80.3111
rradius 23.211
rwrist 0.816501
rhand -16.7047 -2.78977
rfingers 7.12502
rthumb 9.52028 -32.5547
lclavicle -2.74944e-014 7.95139e-015
lhumerus -32.5486 0.9134 85.658
lradius 22.107
lwrist 4.38778
lhand -12.2747 1.91346
lfingers 7.12502
lthumb 13.7923 31.4363
rfemur -11.039 -1.18983 19.7967
rtibia 32.313
rfoot -16.3439 -21.872
rtoes -3.01293
lfemur -8.92809 -1.7555 -18.1544
ltibia 27.1932
lfoot -13.6349 13.574
ltoes -9.35746
23
root 0.55508 17.8808 -30.6157 3.30005 5.2808 -0.773357
lowerback 2.42073 1.21388 -1.38694
upperback -3.56457 1.55874 0.00629526
thorax -5.07779 0.827946 0.676936
lowerneck -20.2904 -0.549222 6.33223
upperneck 22.5484 -1.63618 -4.47759
head 10.4935 -0.753665 -2.9058
rclavicle -1.90585e-014 -7.35503e-015
rhumerus -34.002 -12.2986 -80.3023
rradius 23.1728
rwrist 0.861049
rhand -16.6893 -2.75135
rfingers 7.12502
rthumb 9.53516 -32.5156
lclavicle -1.90585e-014 -7.35503e-015
lhumerus -32.5195 1.04563 85.721
lradius 22.13
lwrist 4.39844
lhand -12.2249 1.8977
lfingers 7.12502
lthumb 13.8403 31.4172
rfemur -11.0549 -1.18 19.7838
rtibia 32.321
rfoot -16.3522 -21.877
rtoes -2.99996
lfemur -8.93482 -1.72765 -18.1664
ltibia 27.186
lfoot -13.6414 13.5582
ltoes -9.39115
24
root 0.556438 17.881 -30.6139 3.31975 5.26723 -0.764614
lowerback 2.3878 1.17708 -1.41079
upperback -3.52469 1.51138 0.0588333
thorax -5.01828 0.80592 0.749153
lowerneck -20.4323 -0.462389 6.37144
upperneck 22.6039 -1.50278 -4.60285
head 10.5471 -0.704622 -2.94236
rclavicle -1.54679e-015 7.95139e-015
rhumerus -33.858 -12.2021 -80.2841
rradius 23.1332
rwrist 0.905074
rhand -16.6815 -2.72289
rfingers 7.12502
rthumb 9.54269 -32.4868
lclavicle -1.54679e-015 7.95139e-015
lhumerus -32.4908 1.1696 85.8002
lradius 22.1625
lwrist 4.41144
lhand -12.1665 1.90796
lfingers 7.12502
lthumb 13.8965 31.4236
rfemur -11.0753 -1.16981 19.7701
rtibia 32.33
rfoot -16.355 -21.8806
rtoes -2.99605
lfemur -8.94362 -1.70292 -18.1795
ltibia 27.1783
lfoot -13.6447 13.5484
ltoes -9.40557
25
root 0.557295 17.8811 -30.6121 3.3433 5.24269 -0.766893
lowerback 2.34728 1.13755 -1.44068
upperback -3.49358 1.46079 0.125558
thorax -4.96399 0.782842 0.839584
lowerneck -20.5262 -0.373925 6.41339
upperneck 22.6519 -1.36142 -4.74025
head 10.5896 -0.653222 -2.98164
rclavicle 4.83295e-015 -1.98785e-016
rhumerus -33.7301 -12.0798 -80.2563
rradius 23.098
rwrist 0.92622
rhand -16.6892 -2.72193
rfingers 7.12502
rthumb 9.53518 -32.4862
lclavicle 4.83295e-015 -1.98785e-016
lhumerus -32.496 1.28594 85.8977
lradius 22.2114
lwrist 4.43959
lhand -12.1152 1.9061
lfingers 7.12502
lthumb 13.946 31.4184
rfemur -11.1029 -1.14349 19.7716
rtibia 32.3383
rfoot -16.3517 -21.8905
rtoes -3.0039
lfemur -8.95818 -1.67234 -18.1784
ltibia 27.1724
lfoot -13.6462 13.5428
ltoes -9.43085
26
root 0.557873 17.8813 -30.6107 3.36723 5.22962 -0.764828
lowerback 2.3171 1.14498 -1.44992
upperback -3.52519 1.47072 0.127061
thorax -4.98042 0.788472 0.845853
lowerneck -20.3608 -0.41736 6.39369
upperneck 22.6395 -1.41094 -4.71798
head 10.551 -0.674023 -2.97445
rclavicle 1.3859e-014 3.57812e-015
rhumerus -33.7913 -12.1593 -80.1955
rradius 23.0918
rwrist 0.962977
rhand -16.7131 -2.72605
rfingers 7.12502
rthumb 9.51217 -32.4914
lclavicle 1.3859e-014 3.57812e-015
lhumerus -32.6263 1.12236 86.0067
lradius 22.287
lwrist 4.5191
lhand -12.0839 1.91585
lfingers 7.12502
lthumb 13.9761 31.4261
rfemur -11.1302 -1.12442 19.77
rtibia 32.3467
rfoot -16.3469 -21.9038
rtoes -3.01695
lfemur -8.97618 -1.64667 -18.18
ltibia 27.1685
lfoot -13.6458 13.5313
ltoes -9.4437
